{"asset":{"version":"2.0","generator":"Unity 6000.0.44f1 glTFast 6.0.1"},"nodes":[{"name":"Beta_Joints","mesh":0},{"name":"Beta_Surface","mesh":1},{"name":"mixamorig:LeftToe_End","translation":[-4.35451759E-19,0.09278137,-1.31265457E-17],"rotation":[0,-0.011869166,0,0.999929547]},{"name":"mixamorig:LeftToeBase","children":[2],"translation":[2.37974585E-17,0.138168648,-3.43152535E-17],"rotation":[0.3354998,-1.40862267E-05,-5.23247263E-06,0.9420403]},{"name":"mixamorig:LeftFoot","children":[3],"translation":[-5.5477796E-11,0.445278466,-2.20306017E-16],"rotation":[0.492890835,-0.04886779,0.02102141,0.8684634]},{"name":"mixamorig:LeftLeg","children":[4],"translation":[6.468267E-11,0.4437139,3.75062086E-16],"rotation":[-0.153964788,0.02823949,-0.00389004545,0.987665057]},{"name":"mixamorig:LeftUpLeg","children":[5],"translation":[0.08207788,-0.06771803,-0.015122138],"rotation":[-0.09583381,-0.0879681,-0.991390169,0.0149367023]},{"name":"mixamorig:RightToe_End","translation":[-3.37254233E-18,0.09278121,4.28901982E-17],"rotation":[0,0.0116080679,0,0.999932647]},{"name":"mixamorig:RightToeBase","children":[7],"translation":[-1.22713071E-17,0.138168663,4.88578464E-17],"rotation":[0.3352863,1.49273616E-09,-1.16204717E-07,0.942116261]},{"name":"mixamorig:RightFoot","children":[8],"translation":[-5.538293E-11,0.4452781,1.86706337E-16],"rotation":[0.491719931,-0.0233736373,0.007929862,0.8704035]},{"name":"mixamorig:RightLeg","children":[9],"translation":[6.197275E-11,0.443714619,-1.6627694E-15],"rotation":[-0.140712738,0.04621948,-0.00282968674,0.988967]},{"name":"mixamorig:RightUpLeg","children":[10],"translation":[-0.08207789,-0.06771764,-0.0151221864],"rotation":[-0.00572852837,-0.07707249,-0.9969557,0.0103155551]},{"name":"mixamorig:LeftHandIndex4","translation":[8.589727E-15,0.0277486555,3.97755131E-16],"rotation":[1.05946043E-08,-0.000377563265,-1.3069538E-05,0.99999994]},{"name":"mixamorig:LeftHandIndex3","children":[12],"translation":[-7.177584E-15,0.0284999982,3.21001082E-16],"rotation":[0.0580309033,-2.29339008E-07,-0.00594663247,0.9982971]},{"name":"mixamorig:LeftHandIndex2","children":[13],"translation":[-6.4293255E-17,0.037,-7.240398E-17],"rotation":[0.104824975,-1.80936564E-08,-0.0107417647,0.9944327]},{"name":"mixamorig:LeftHandIndex1","children":[14],"translation":[-0.022598628,0.09109309,0.005180343],"rotation":[0.178958118,-0.008433163,0.0372418649,0.983115435]},{"name":"mixamorig:LeftHandMiddle4","translation":[-8.712009E-14,0.0295286346,-1.31570348E-15],"rotation":[-2.67594249E-08,-0.00102414074,2.79847573E-05,0.999999464]},{"name":"mixamorig:LeftHandMiddle3","children":[16],"translation":[-2.870735E-14,0.0295,-1.89271749E-16],"rotation":[0.07790464,-1.54371421E-07,-0.007983781,0.9969289]},{"name":"mixamorig:LeftHandMiddle2","children":[17],"translation":[-1.84843269E-17,0.037,-4.10782557E-17],"rotation":[0.112604767,-1.696006E-07,-0.0115390662,0.9935729]},{"name":"mixamorig:LeftHandMiddle1","children":[18],"translation":[-3.660436E-07,0.0953340158,-3.25404727E-07],"rotation":[0.161360547,-0.0155684864,0.0452134646,0.98573637]},{"name":"mixamorig:LeftHandPinky4","translation":[1.10373645E-14,0.0212553144,-4.76080956E-17],"rotation":[2.203471E-07,-0.0007833988,-0.0002953856,0.999999642]},{"name":"mixamorig:LeftHandPinky3","children":[20],"translation":[2.40717849E-15,0.0210000016,3.33816426E-16],"rotation":[0.0779053047,-2.32599945E-07,-0.007983362,0.9969288]},{"name":"mixamorig:LeftHandPinky2","children":[21],"translation":[-3.89407052E-17,0.036,2.54098926E-16],"rotation":[0.112604387,-1.22223312E-07,-0.0115397228,0.9935729]},{"name":"mixamorig:LeftHandPinky1","children":[22],"translation":[0.0380626321,0.08077779,0.00486877],"rotation":[0.16344057,-0.0194721911,0.0698229149,0.9838866]},{"name":"mixamorig:LeftHandRing4","translation":[-2.327433E-07,0.0264431629,-1.46075747E-08],"rotation":[-2.73169348E-07,0.000493437343,1.60470227E-05,0.9999999]},{"name":"mixamorig:LeftHandRing3","children":[24],"translation":[2.64328914E-08,0.0295,5.20985965E-09],"rotation":[0.0779052,-2.42255368E-07,-0.007983475,0.9969288]},{"name":"mixamorig:LeftHandRing2","children":[25],"translation":[-3.88070031E-17,0.0315,-1.26370116E-16],"rotation":[0.112604633,-8.033926E-08,-0.0115393773,0.9935729]},{"name":"mixamorig:LeftHandRing1","children":[26],"translation":[0.0186508112,0.09104528,0.000430282351],"rotation":[0.163440064,-0.019472165,0.0698229745,0.983886659]},{"name":"mixamorig:LeftHandThumb4","translation":[1.64622812E-16,0.0258058142,2.600447E-17],"rotation":[0.00515340734,0.12268278,0.0416515358,0.991558135]},{"name":"mixamorig:LeftHandThumb3","children":[28],"translation":[-1.28233476E-17,0.0341838822,5.503636E-16],"rotation":[-0.1304609,-0.0004181586,0.0202189386,0.9912472]},{"name":"mixamorig:LeftHandThumb2","children":[29],"translation":[-8.920065E-17,0.0418709442,1.18594062E-16],"rotation":[-0.1037409,0.01819581,-0.165464714,0.980575442]},{"name":"mixamorig:LeftHandThumb1","children":[30],"translation":[-0.0268173143,0.0246614479,0.0157619286],"rotation":[0.186717689,-0.09640694,0.203895435,0.9561741]},{"name":"mixamorig:LeftHand","children":[15,19,23,27,31],"translation":[5.438735E-08,0.28328833,-5.56424862E-09],"rotation":[0.0363534726,-0.2650843,0.039655406,0.9627234]},{"name":"mixamorig:LeftForeArm","children":[32],"translation":[9.03804536E-17,0.2784152,-4.31193338E-17],"rotation":[6.31620338E-08,-9.187265E-09,0.221721008,0.9751102]},{"name":"mixamorig:LeftArm","children":[33],"translation":[-2.6006848E-17,0.108377054,-9.237507E-18],"rotation":[0.327400923,0.3864273,0.46062988,0.728905141]},{"name":"mixamorig:LeftShoulder","children":[34],"translation":[0.0457044579,0.11195644,-0.008066272],"rotation":[-0.460449517,-0.582276464,0.5616728,-0.3653273]},{"name":"mixamorig:HeadTop_End","translation":[9.856974E-09,0.2096278,0.101229347],"rotation":[9.71445147E-17,0,0,1]},{"name":"mixamorig:Head","children":[36],"translation":[-1.07567477E-09,0.09341923,0.0284104086],"rotation":[-0.08615124,-0.049058266,-0.007831023,0.9950427]},{"name":"mixamorig:Neck","children":[37],"translation":[4.14748834E-12,0.16865322,5.76863848E-16],"rotation":[-0.089203544,0.0481270477,-0.00162433123,0.994848669]},{"name":"mixamorig:RightHandIndex4","translation":[7.90675356E-15,0.0277219042,5.114471E-12],"rotation":[8.65986E-08,0.001002692,8.70583244E-05,0.9999995]},{"name":"mixamorig:RightHandIndex3","children":[39],"translation":[-3.4287106E-15,0.0284999982,-8.893045E-12],"rotation":[0.0685448945,7.388207E-08,0.00558457058,0.997632444]},{"name":"mixamorig:RightHandIndex2","children":[40],"translation":[-8.564062E-17,0.037,-9.36499346E-17],"rotation":[0.0685449,-5.017826E-08,0.00558421249,0.997632444]},{"name":"mixamorig:RightHandIndex1","children":[41],"translation":[0.02259835,0.0910828263,0.0051786215],"rotation":[0.08949769,0.00136513461,0.0271624885,0.995615661]},{"name":"mixamorig:RightHandMiddle4","translation":[1.13291938E-15,0.0294662882,7.2058734E-11],"rotation":[1.54982686E-07,0.0009288142,0.000166394486,0.9999996]},{"name":"mixamorig:RightHandMiddle3","children":[43],"translation":[-2.51638983E-15,0.0295,-1.54113375E-10],"rotation":[0.0685448349,4.164461E-08,0.0055845296,0.997632444]},{"name":"mixamorig:RightHandMiddle2","children":[44],"translation":[-1.0026188E-16,0.037,-2.8084325E-16],"rotation":[0.06854509,-4.06485228E-08,0.005584165,0.9976324]},{"name":"mixamorig:RightHandMiddle1","children":[45],"translation":[-2.36873234E-07,0.09532501,3.985569E-07],"rotation":[0.0914562643,0.00364983245,0.00234637829,0.995799661]},{"name":"mixamorig:RightHandPinky4","translation":[1.29590567E-15,0.02115781,1.44073517E-10],"rotation":[-6.42066E-08,0.00156948133,-4.1285286E-05,0.9999988]},{"name":"mixamorig:RightHandPinky3","children":[47],"translation":[-5.28002646E-16,0.0209999979,-2.11638956E-10],"rotation":[0.242606461,1.40787817E-08,0.0197646189,0.969923437]},{"name":"mixamorig:RightHandPinky2","children":[48],"translation":[-1.0715117E-16,0.036,-3.087779E-16],"rotation":[0.136765212,1.37476741E-08,0.0111419261,0.990540862]},{"name":"mixamorig:RightHandPinky1","children":[49],"translation":[-0.0380627736,0.08076676,0.004867037],"rotation":[0.04796205,0.000536792737,0.0238188636,0.998564959]},{"name":"mixamorig:RightHandRing4","translation":[4.719501E-15,0.0263881553,5.682296E-12],"rotation":[-1.33964534E-07,0.000146075021,-0.000799286237,0.9999997]},{"name":"mixamorig:RightHandRing3","children":[51],"translation":[2.62250739E-15,0.0288968459,8.202333E-12],"rotation":[0.068545,-2.88428179E-08,0.00558392936,0.997632444]},{"name":"mixamorig:RightHandRing2","children":[52],"translation":[-5.14946567E-17,0.03379273,-2.837085E-16],"rotation":[0.136929885,1.40443476E-07,0.01115554,0.990518]},{"name":"mixamorig:RightHandRing1","children":[53],"translation":[-0.01865133,0.09103592,0.0004306965],"rotation":[0.09077307,0.0028455758,0.0110855205,0.99580586]},{"name":"mixamorig:RightHandThumb4","translation":[-1.42093244E-16,0.0257497728,-2.66132114E-16],"rotation":[0.00577485375,-0.1175092,-0.04874371,0.991858]},{"name":"mixamorig:RightHandThumb3","children":[55],"translation":[-1.837671E-16,0.03416271,1.9955813E-16],"rotation":[-0.14028272,-0.000799558766,0.0260509,0.989768445]},{"name":"mixamorig:RightHandThumb2","children":[56],"translation":[-1.56925863E-16,0.0418898538,-9.679277E-17],"rotation":[-0.0282857884,-0.00115906459,0.1364802,0.990238249]},{"name":"mixamorig:RightHandThumb1","children":[57],"translation":[0.0268185176,0.02464805,0.01573984],"rotation":[0.176993042,0.0822915956,-0.200816989,0.9599865]},{"name":"mixamorig:RightHand","children":[42,46,50,54,58],"translation":[2.28585989E-07,0.2832884,4.47253861E-08],"rotation":[-0.250974059,-0.306247115,0.0944314152,0.913404346]},{"name":"mixamorig:RightForeArm","children":[59],"translation":[-9.964063E-11,0.278415173,3.55817921E-16],"rotation":[9.945848E-09,1.2773278E-09,-0.710286558,0.7039126]},{"name":"mixamorig:RightArm","children":[60],"translation":[3.151008E-17,0.108381756,-9.694985E-18],"rotation":[0.189057127,0.342496574,-0.3730722,0.84129107]},{"name":"mixamorig:RightShoulder","children":[61],"translation":[-0.0456997,0.111958444,-0.008066318],"rotation":[0.519257545,-0.5600106,0.505226135,0.401878417]},{"name":"mixamorig:Spine2","children":[35,38,62],"translation":[1.13754315E-16,0.09322091,2.823681E-09],"rotation":[0.0486945435,0.00848505,-0.0217290483,0.9985413]},{"name":"mixamorig:Spine1","children":[63],"translation":[-9.32854E-23,0.100026749,5.83388E-18],"rotation":[0.0353588462,0.009591516,-0.0221013986,0.999084234]},{"name":"mixamorig:Spine","children":[64],"translation":[-4.2558305E-12,0.101824366,-3.96904717E-17],"rotation":[-0.136062726,0.0382820331,0.08921557,0.985932052]},{"name":"mixamorig:Hips","children":[6,11,65],"translation":[0.00055071956,1.03434551,0.0151027795],"rotation":[0.00622698572,0.0190607365,-0.00608758,0.9997804]},{"name":"Waving","children":[0,1,66]}],"buffers":[{"uri":"Waving.bin","byteLength":1656624}],"bufferViews":[{"buffer":0,"byteLength":125040},{"buffer":0,"byteLength":169632,"byteOffset":125040},{"buffer":0,"byteLength":498920,"byteOffset":294672,"byteStride":40},{"buffer":0,"byteLength":99784,"byteOffset":793592,"byteStride":8},{"buffer":0,"byteLength":636040,"byteOffset":893376,"byteStride":40},{"buffer":0,"byteLength":127208,"byteOffset":1529416,"byteStride":8}],"accessors":[{"bufferView":2,"componentType":5126,"count":12473,"type":"VEC3","max":[0.8834667,1.59644222,0.125019237],"min":[-0.8834671,-0.000351190567,-0.129905149]},{"bufferView":2,"componentType":5126,"count":12473,"type":"VEC3","byteOffset":12},{"bufferView":2,"componentType":5126,"count":12473,"type":"VEC4","byteOffset":24},{"bufferView":3,"componentType":5126,"count":12473,"type":"VEC2"},{"bufferView":0,"componentType":5123,"count":62520,"type":"SCALAR"},{"bufferView":4,"componentType":5126,"count":15901,"type":"VEC3","max":[0.902565837,1.80888319,0.1717417],"min":[-0.9025662,-0.0003219843,-0.148957044]},{"bufferView":4,"componentType":5126,"count":15901,"type":"VEC3","byteOffset":12},{"bufferView":4,"componentType":5126,"count":15901,"type":"VEC4","byteOffset":24},{"bufferView":5,"componentType":5126,"count":15901,"type":"VEC2"},{"bufferView":1,"componentType":5123,"count":84816,"type":"SCALAR"}],"materials":[{"name":"Beta_Joints_MAT1","pbrMetallicRoughness":{"baseColorFactor":[0.612501,0.387875438,0.350894034,1],"metallicFactor":0,"roughnessFactor":0.8585787}},{"name":"Beta_HighLimbsGeoSG3","pbrMetallicRoughness":{"baseColorFactor":[0.9246134,0.5858747,0.5503651,1],"metallicFactor":0,"roughnessFactor":0.808291554}}],"meshes":[{"name":"Beta_Joints","primitives":[{"attributes":{"POSITION":0,"NORMAL":1,"TANGENT":2,"TEXCOORD_0":3},"indices":4,"material":0}]},{"name":"Beta_Surface","primitives":[{"attributes":{"POSITION":5,"NORMAL":6,"TANGENT":7,"TEXCOORD_0":8},"indices":9,"material":1}]}],"scene":0,"scenes":[{"name":"Waving","nodes":[67]}]}